<?xml version="1.0" encoding="utf-8"?>
<!-- Generator: Adobe Illustrator 24.0.1, SVG Export Plug-In . SVG Version: 6.00 Build 0)  -->
<svg version="1.1" id="Layer_1" xmlns="http://www.w3.org/2000/svg" xmlns:xlink="http://www.w3.org/1999/xlink" x="0px" y="0px"
	 viewBox="0 0 195 195" style="enable-background:new 0 0 195 195;" xml:space="preserve">
<g>
	<path d="M187.4,125.7c-0.9-0.2-1.7-5.3-2-6.2s-2.1-6.1-2.1-6.1c-1.8,7-8.2,15.2-13.7,15.2s-9.6-6.4-10-7.3c-0.5-0.9,0.9-3.6,0-4.6
		c-0.9-0.9-2.7-3.5-2.7-5c0-1.5,1.8-1.8,2.3-4.1c0.5-2.3,4.1-3.2,4.1-6.4c0-3.2,3.3-6.7,3.3-9c0-2.3-4.6-2.9-4.9-4.6
		c-0.3-1.7,5.6-2.3,5.3-5.2c-0.3-2.9-7.3-8.2-7.5-12.6s9.6-10.2,11.4-10.2s3.2-4.1,0.6-4.3c-2.6-0.2-2-4.4,0.2-5.8
		c2.1-1.4,6.1-2.3,6.1-3.2c0-0.9,2.3-3.7,2.7-7.3c0.5-3.7-3-0.9-6.4,2c-3.3,2.9-6.4,0.2-8.4,1.1c-2,0.9,2,6.8,0.8,7.5
		c-1.2,0.6-1.4,1.7-2,4.6c-0.6,2.9-7.8,1.4-8.2,0.2c-0.5-1.2-2.1-3-3.2-2.4c-1.1,0.6-4.9,1.8-5.6,1.1c-0.8-0.8-4.6-2.1-4.4,0.2
		c0.2,2.3-2.7,5.8-4.6,5.8c-1.8,0-4.9-5.2-5.6-6.7c-0.8-1.5,0.6-3.8-0.2-6.2c-0.8-2.4-5.3,0.5-4.7,2.7c0.6,2.3-4.9,4-7.3,4.1
		c-2.4,0.2-2.7-2.9-5.3-2.7c-2.6,0.2-7.1-2.3-7.1-9.1c0-6.8,8.8-11.3,10.8-11.3c2,0,5.8,2.6,7.9,2.6c2.1,0,4.7-2.6,6.5-2.6
		c1.8,0,3.5,1.7,5,1.7c1.5,0,1.8-1.8,4.6-1.8s5.5,2,6.2-0.9c0.8-2.9,6.5-10.8,9.6-14c3-3.2,4.3-18.4,0-13.5
		c-4.3,4.9-12,9.7-14.8,8.1c-2.7-1.7-5.5-0.2-8.8,3.5c-3.3,3.6-8.5,2.9-11.3,1.3c-2.7-1.7-3.8-3-9.3,5.3c-5.5,8.4-11.4,9.4-21.3,7.6
		c-9.9-1.8-9.1,8.1-14,16.1c-4.9,8.1-10.2,4.4-15.4,1.1c-5.2-3.3,1.2-6.2,1.2-6.2c8.1-4.7-1.5-6.8-4.4-7.6c-2.9-0.8-0.5-8.4-3.5-8.4
		s-6.8,10-10.9,14.9c-4.1,4.9-8.8,1.4-9.7,2.7c-0.9,1.4,2.1,6.8,5.6,9.3c3.5,2.4-2,5.9,1.2,8.1c3.2,2.1,0,9.7-4.1,5.2
		c-4.1-4.6-9.1,8.7-13.1,9c-4,0.3-17.6-8.2-14.3-5.8c0.1,0.1,0.3,0.2,0.4,0.3c2.7,2.7-0.5,9.9-0.1,10.6c0.5,0.8,11.3,1.8,11.3,5.5
		c0,3.6-8.2,7.8-9,10c-0.8,2.3,9.4,8.5,7.9,10.8c-1.5,2.3,1.7,13.1,1.7,13.1c-1.4,14.4-13.1,13.1-16.6,14
		c-3.5,0.9,9.7,16.1,9.7,16.1S30,149,30,158.3c0,9.3-6.4,11.9-6.4,11.9c7.3,1.1,21.3,4.1,30,9.3c8.7,5.2,2.3,12.5,7,13.7
		s11.9-7.6,16-6.5c4.1,1.1,11.7,6.4,14.6,5.9c2.9-0.5,8.1-13.2,14-11.1c5.9,2.1,14.3,10.5,14.3,10.5c2.9,0.3,9,2.9,9,2.9
		c2.7-21.9,23.4-22.4,24.3-23.9c0.9-1.5-0.9-12.2,0.3-15.5s5.9-3.5,8.4-4c2.4-0.5,5.2-0.5,5-3.7c-0.2-3.2,5.9-8.7,9.1-10.9
		c3.2-2.3,7.8-7.1,9.9-8.2C187.6,127.6,188.3,125.9,187.4,125.7z M92.8,173.6c-32.1,0-58.1-26-58.1-58.1c0-32.1,26-58.1,58.1-58.1
		c32.1,0,58.1,26,58.1,58.1C150.9,147.6,124.9,173.6,92.8,173.6z"/>
</g>
</svg>
